<?xml version="1.0" standalone="no"?>
<!DOCTYPE svg PUBLIC "-//W3C//DTD SVG 20010904//EN"
 "http://www.w3.org/TR/2001/REC-SVG-20010904/DTD/svg10.dtd">
<svg version="1.0" xmlns="http://www.w3.org/2000/svg"
 width="750.000000pt" height="750.000000pt" viewBox="0 0 750.000000 750.000000"
 preserveAspectRatio="xMidYMid meet">

<g transform="translate(0.000000,750.000000) scale(0.100000,-0.100000)"
fill="#000000" stroke="none">
<path d="M2395 4599 c-147 -11 -191 -30 -252 -109 -83 -107 -107 -127 -165
-138 -29 -6 -183 -22 -343 -37 -327 -29 -369 -41 -418 -113 -46 -67 -48 -94
-45 -632 3 -499 3 -505 25 -546 28 -53 91 -107 142 -122 49 -15 1138 -17 1161
-2 12 7 8 10 -15 10 -17 0 -111 7 -210 15 -99 8 -337 24 -530 35 -192 11 -365
25 -383 31 -18 6 -45 27 -60 47 l-27 35 -3 509 c-3 556 -3 555 55 593 18 12
131 32 359 65 408 58 384 46 497 225 18 27 48 58 67 69 20 12 96 32 180 47
155 29 152 31 -35 18z"/>
<path d="M2885 4596 c-89 -39 -97 -185 -13 -236 40 -24 107 -26 148 -5 58 30
81 125 47 191 -29 56 -115 79 -182 50z"/>
<path d="M3257 4483 c-4 -3 -7 -53 -7 -110 l0 -103 160 0 160 0 0 -420 0 -420
135 0 135 0 0 420 0 420 155 0 155 0 0 110 0 110 -443 0 c-244 0 -447 -3 -450
-7z"/>
<path d="M4547 4453 c-21 -42 -437 -1010 -437 -1017 0 -4 61 -5 136 -4 l136 3
35 93 36 92 232 0 233 0 38 -95 37 -95 143 0 142 0 -90 213 c-49 116 -148 353
-221 525 l-131 312 -138 0 -137 0 -14 -27z m219 -436 l71 -182 -145 -3 c-80
-1 -147 -1 -149 2 -3 2 28 88 69 189 40 102 75 183 78 181 3 -3 37 -87 76
-187z"/>
<path d="M5440 3955 l0 -525 135 0 135 0 0 150 0 150 144 0 c158 0 224 14 310
64 103 60 162 191 154 344 -7 135 -58 226 -163 287 -81 47 -141 55 -439 55
l-276 0 0 -525z m548 295 c106 -48 108 -229 3 -288 -34 -19 -54 -22 -160 -22
l-121 0 0 165 0 165 118 0 c94 0 125 -4 160 -20z"/>
<path d="M2475 4323 c-61 -8 -142 -36 -201 -68 -340 -189 -405 -657 -130 -930
106 -105 262 -176 381 -174 18 0 5 6 -35 15 -272 58 -470 300 -470 574 0 160
54 286 174 406 91 90 162 131 286 163 69 18 68 24 -5 14z"/>
<path d="M2449 4226 c-216 -60 -369 -262 -369 -485 1 -94 13 -149 51 -226 77
-158 236 -265 409 -276 51 -4 55 -2 58 19 3 19 -1 22 -30 22 -99 0 -227 58
-308 139 -273 273 -108 727 283 775 47 6 57 11 57 27 0 16 -7 19 -52 18 -29 0
-74 -6 -99 -13z"/>
<path d="M2820 3835 l0 -405 130 0 130 0 0 405 0 405 -130 0 -130 0 0 -405z"/>
<path d="M2477 4121 c-199 -65 -315 -260 -273 -460 27 -129 97 -220 210 -277
76 -37 177 -56 190 -36 7 12 -7 16 -82 27 -89 12 -186 78 -241 163 -145 226
-1 536 264 570 33 4 59 12 60 17 0 17 -68 15 -128 -4z"/>
<path d="M2528 4003 c-25 -6 -23 -12 17 -58 l34 -40 1 53 c0 54 -4 58 -52 45z"/>
<path d="M2405 3938 c-20 -17 -45 -48 -56 -70 l-19 -38 77 0 c67 1 82 4 107
25 l30 24 -40 44 c-21 25 -44 46 -51 46 -7 1 -28 -13 -48 -31z"/>
<path d="M2318 3769 c-5 -30 7 -117 17 -127 2 -3 29 16 59 41 42 37 55 54 58
82 l4 35 -67 0 -67 0 -4 -31z"/>
<path d="M2405 3640 l-49 -50 34 -36 c31 -31 79 -64 95 -64 3 0 5 31 5 70 0
50 -5 78 -18 99 l-18 30 -49 -49z"/>
<path d="M2522 3543 c3 -66 4 -68 31 -71 26 -3 27 -2 27 46 0 34 -5 53 -17 64
-42 35 -44 33 -41 -39z"/>
<path d="M2820 3110 l0 -200 40 0 40 0 0 126 c0 69 3 123 8 120 4 -2 27 -50
52 -105 43 -96 46 -101 76 -101 30 0 33 5 82 108 l51 107 0 -127 1 -128 45 0
45 0 0 200 0 200 -55 0 -54 0 -57 -117 -56 -118 -57 117 -56 117 -52 1 -53 0
0 -200z"/>
<path d="M3740 3110 l0 -200 160 0 160 0 0 40 0 40 -116 0 -115 0 3 43 3 42
98 3 97 3 0 34 0 34 -97 3 -98 3 0 40 0 40 108 3 107 3 0 34 0 35 -155 0 -155
0 0 -200z"/>
<path d="M4520 3109 l0 -201 123 4 c102 3 129 7 164 26 110 58 135 212 50 309
-47 54 -79 63 -217 63 l-120 0 0 -201z m226 115 c43 -21 64 -59 64 -120 0 -39
-5 -51 -34 -80 -31 -31 -39 -34 -95 -34 l-61 0 0 125 0 125 46 0 c25 0 61 -7
80 -16z"/>
<path d="M5370 3110 l0 -200 45 0 45 0 0 200 0 200 -45 0 -45 0 0 -200z"/>
<path d="M6051 3268 c-10 -24 -48 -111 -85 -195 -36 -84 -66 -155 -66 -158 0
-3 21 -5 46 -5 44 0 46 1 61 40 l16 40 92 0 93 0 16 -40 c16 -39 17 -40 66
-40 43 0 48 2 43 18 -4 9 -42 98 -84 197 l-78 180 -50 3 -51 3 -19 -43z m119
-190 c0 -15 -9 -18 -55 -18 -30 0 -55 3 -55 7 0 4 12 39 27 77 l27 69 28 -59
c15 -32 27 -67 28 -76z"/>
</g>
</svg>
